<?xml version="1.0" standalone="no"?>
<!DOCTYPE svg PUBLIC "-//W3C//DTD SVG 20010904//EN"
 "http://www.w3.org/TR/2001/REC-SVG-20010904/DTD/svg10.dtd">
<svg version="1.0" xmlns="http://www.w3.org/2000/svg"
 width="592.000000pt" height="131.000000pt" viewBox="0 0 592.000000 131.000000"
 preserveAspectRatio="xMidYMid meet">

<g transform="translate(0.000000,131.000000) scale(0.100000,-0.100000)"
fill="#000000" stroke="none">
<path d="M668 1259 c-4 -38 -12 -58 -32 -77 l-27 -27 -232 0 c-227 -1 -234 -1
-282 -25 -65 -33 -95 -83 -95 -162 l0 -58 35 0 c34 0 35 1 35 38 0 46 17 79
53 106 27 20 41 21 260 21 254 0 281 5 310 61 l13 25 14 -26 c30 -55 54 -60
305 -60 201 -1 234 -3 263 -19 37 -19 62 -67 62 -116 0 -28 3 -30 36 -30 l37
0 -5 71 c-7 85 -24 114 -94 149 -48 24 -52 25 -262 22 -141 -2 -225 1 -248 8
-41 14 -64 53 -64 110 0 40 0 40 -39 40 l-38 0 -5 -51z"/>
<path d="M1900 1149 c-99 -21 -91 -149 12 -165 47 -8 105 18 118 52 13 32 5
78 -15 94 -22 18 -76 27 -115 19z"/>
<path d="M2310 1040 l0 -110 -75 0 -75 0 0 -60 0 -60 75 0 75 0 0 -270 0 -270
75 0 75 0 0 270 0 270 70 0 70 0 0 60 0 60 -70 0 -70 0 0 110 0 110 -75 0 -75
0 0 -110z"/>
<path d="M5240 710 l0 -440 75 0 74 0 3 132 3 132 142 -131 143 -132 105 -3
105 -3 -176 176 -175 175 158 152 158 151 -94 1 -94 0 -138 -131 -139 -131 0
246 0 246 -75 0 -75 0 0 -440z"/>
<path d="M2730 680 l0 -410 293 0 c337 0 362 4 433 76 85 84 88 231 7 308
l-29 27 23 48 c52 104 20 256 -65 314 -58 41 -108 46 -394 47 l-268 0 0 -410z
m553 254 c67 -34 86 -97 47 -147 -31 -39 -77 -47 -272 -47 l-178 0 0 105 0
105 185 0 c151 0 192 -3 218 -16z m43 -341 c45 -24 54 -38 54 -87 0 -44 -32
-83 -78 -96 -20 -5 -124 -10 -229 -10 l-193 0 0 111 0 111 203 -4 c184 -3 206
-6 243 -25z"/>
<path d="M677 1014 c-4 -4 -7 -155 -7 -336 l0 -328 40 0 40 0 -2 333 -3 332
-30 3 c-17 2 -34 0 -38 -4z"/>
<path d="M3845 907 c-92 -31 -151 -80 -191 -158 -67 -133 -41 -304 61 -403 65
-63 136 -89 250 -90 80 0 97 3 155 30 124 58 181 144 188 284 3 69 0 95 -17
141 -29 75 -88 141 -159 176 -48 23 -71 28 -152 30 -59 2 -110 -2 -135 -10z
m225 -139 c56 -29 77 -59 90 -127 12 -65 4 -124 -23 -173 -60 -110 -292 -107
-349 4 -39 76 -33 194 14 253 51 65 183 86 268 43z"/>
<path d="M4635 907 c-92 -31 -151 -80 -191 -158 -67 -133 -41 -304 61 -403 65
-63 136 -89 250 -90 80 0 97 3 155 30 124 58 181 144 188 284 3 69 0 95 -17
141 -29 75 -88 141 -159 176 -48 23 -71 28 -152 30 -59 2 -110 -2 -135 -10z
m225 -139 c56 -29 77 -59 90 -127 12 -65 4 -124 -23 -173 -60 -110 -292 -107
-349 4 -39 76 -33 194 14 253 51 65 183 86 268 43z"/>
<path d="M174 896 c-3 -8 -4 -27 -2 -43 l3 -28 164 -3 c180 -3 194 1 189 52
l-3 31 -173 3 c-143 2 -173 0 -178 -12z"/>
<path d="M894 896 c-3 -8 -4 -27 -2 -43 l3 -28 175 0 175 0 0 40 0 40 -173 3
c-143 2 -173 0 -178 -12z"/>
<path d="M1860 580 l0 -310 75 0 75 0 0 310 0 310 -75 0 -75 0 0 -310z"/>
<path d="M174 706 c-3 -8 -4 -25 -2 -38 l3 -23 175 0 175 0 0 35 0 35 -173 3
c-143 2 -173 0 -178 -12z"/>
<path d="M894 706 c-3 -8 -4 -25 -2 -38 l3 -23 175 0 175 0 0 35 0 35 -173 3
c-143 2 -173 0 -178 -12z"/>
<path d="M177 534 c-4 -4 -7 -22 -7 -41 l0 -33 178 2 177 3 0 35 0 35 -171 3
c-93 1 -173 -1 -177 -4z"/>
<path d="M894 526 c-3 -8 -4 -25 -2 -38 3 -23 3 -23 181 -26 l178 -2 -3 37 -3
38 -173 3 c-143 2 -173 0 -178 -12z"/>
<path d="M0 386 c0 -65 12 -102 47 -138 45 -47 78 -52 331 -53 l234 0 29 -33
c23 -25 29 -42 29 -77 l0 -45 39 0 38 0 5 51 c4 38 12 58 32 77 l27 27 232 0
c227 0 233 0 282 25 63 31 95 88 95 167 l0 53 -35 0 c-34 0 -35 -1 -35 -37 0
-47 -17 -80 -53 -107 -27 -20 -41 -21 -260 -21 -225 0 -233 -1 -269 -23 -20
-13 -40 -32 -43 -44 -7 -19 -9 -17 -37 16 -42 52 -77 58 -321 54 -161 -2 -217
0 -235 10 -34 19 -62 72 -62 115 0 36 -1 37 -35 37 l-35 0 0 -54z"/>
</g>
</svg>
